<?xml version="1.0" encoding="UTF-8"?>
<svg width="456" height="456" viewBox="0 0 456 456" xmlns="http://www.w3.org/2000/svg">
  <g fill="none" fill-rule="evenodd">
    <rect x="86" y="112" width="220" height="156" rx="28" fill="#FFFFFF" opacity="0.96"/>
    <rect x="118" y="144" width="106" height="18" rx="9" fill="#0F766E" opacity="0.9"/>
    <rect x="118" y="184" width="150" height="18" rx="9" fill="#0F766E" opacity="0.24"/>
    <rect x="118" y="224" width="86" height="18" rx="9" fill="#0F766E" opacity="0.24"/>
    <rect x="104" y="172" width="176" height="50" rx="15" fill="#FBBF24" opacity="0.9"/>
    <rect x="126" y="189" width="104" height="16" rx="8" fill="#0F766E" opacity="0.72"/>
    <path d="M294 202h18c31 0 56 25 56 56v26c0 31-25 56-56 56h-76c-31 0-56-25-56-56v-12" stroke="#A7F3D0" stroke-width="28" stroke-linecap="round"/>
    <rect x="196" y="218" width="166" height="118" rx="27" fill="#FFFFFF"/>
    <g opacity="0.78" stroke="#A7F3D0" stroke-width="6.4" stroke-linecap="round" stroke-linejoin="round">
      <path d="M281 283c9 1 21 0 33-3"/>
      <path d="M297 274c-2 11-3 23 5 41"/>
      <path d="M310 294c-6 9-14 18-25 24-5-7-2-17 6-22 8-6 21-6 27 2 6 7 2 17-7 22-6 4-14 5 0 2"/>
    </g>
    <path d="M239 298l25-64h19l25 64h-19l-4-13h-24l-4 13h-18zm27-29h14l-7-22-7 22z" fill="#0F766E"/>
    <path d="M330 250v10" stroke="#0F766E" stroke-width="10" stroke-linecap="round"/>
    <path d="M311 266h38M320 266c5 16 15 27 28 35M342 266c-4 16-14 27-27 35" stroke="#0F766E" stroke-width="11" stroke-linecap="round" stroke-linejoin="round"/>
  </g>
</svg>
