<?xml version="1.0" encoding="UTF-8"?>
<svg width="456" height="456" viewBox="0 0 456 456" xmlns="http://www.w3.org/2000/svg">
  <g fill="none" fill-rule="evenodd">
    <rect x="82" y="104" width="238" height="170" rx="30" fill="#FFFFFF" opacity="0.96"/>
    <rect x="112" y="136" width="118" height="20" rx="10" fill="#0F766E" opacity="0.88"/>
    <rect x="112" y="176" width="158" height="20" rx="10" fill="#0F766E" opacity="0.28"/>
    <rect x="112" y="216" width="92" height="20" rx="10" fill="#0F766E" opacity="0.28"/>
    <rect x="96" y="164" width="190" height="54" rx="16" fill="#FBBF24" opacity="0.88"/>
    <rect x="120" y="182" width="112" height="18" rx="9" fill="#0F766E" opacity="0.72"/>
    <path d="M310 202h12c34 0 61 27 61 61v30c0 34-27 61-61 61h-86c-34 0-61-27-61-61v-15" stroke="#A7F3D0" stroke-width="30" stroke-linecap="round"/>
    <rect x="194" y="218" width="180" height="128" rx="28" fill="#FFFFFF"/>
    <g opacity="0.78" stroke="#A7F3D0" stroke-width="7" stroke-linecap="round" stroke-linejoin="round">
      <path d="M286 288c10 1 23 0 36-3"/>
      <path d="M304 278c-2 12-3 25 5 45"/>
      <path d="M318 300c-6 10-15 19-27 26-5-8-2-18 7-24 9-6 23-6 29 2 6 8 2 18-8 24-7 4-15 5 0 2"/>
    </g>
    <path d="M239 306l28-72h20l28 72h-20l-5-15h-28l-5 15h-18zm29-32h16l-8-25-8 25z" fill="#0F766E"/>
    <path d="M336 250v10" stroke="#0F766E" stroke-width="10" stroke-linecap="round"/>
    <path d="M315 268h42M325 268c5 17 16 30 31 38M349 268c-4 17-15 30-31 38" stroke="#0F766E" stroke-width="12" stroke-linecap="round" stroke-linejoin="round"/>
  </g>
</svg>
